<?xml version="1.0" encoding="UTF-8"?>
<svg id="svg1" xmlns="http://www.w3.org/2000/svg" version="1.1" xmlns:inkscape="http://www.inkscape.org/namespaces/inkscape" xmlns:sodipodi="http://sodipodi.sourceforge.net/DTD/sodipodi-0.dtd" xmlns:svg="http://www.w3.org/2000/svg" viewBox="0 0 152.6 173.8">
  <!-- Generator: Adobe Illustrator 29.1.0, SVG Export Plug-In . SVG Version: 2.1.0 Build 142)  -->
  <defs>
    <style>
      .st0 {
        fill: #1d1d1b;
      }
    </style>
  </defs>
  <sodipodi:namedview id="namedview1" bordercolor="#000000" borderopacity="0.25" inkscape:current-layer="layer1" inkscape:cx="168.65719" inkscape:cy="141.44613" inkscape:deskcolor="#d1d1d1" inkscape:document-units="mm" inkscape:pagecheckerboard="0" inkscape:pageopacity="0.0" inkscape:showpageshadow="2" inkscape:window-height="991" inkscape:window-maximized="1" inkscape:window-width="1920" inkscape:window-x="-9" inkscape:window-y="-9" inkscape:zoom="1.9477379" labelstyle="default" pagecolor="#ffffff"/>
  <g id="layer1" inkscape:groupmode="layer" inkscape:label="Camada 1">
    <path id="path13" class="st0" d="M71.9,172.2c-1.7-.9-7.3-4.1-12.5-7.1-5.2-3-10.7-6.2-12.2-7.1-1.5-.9-4.7-2.7-7.1-4.1-2.4-1.4-5.2-3-6.2-3.6-1-.6-4.8-2.8-8.4-4.9-3.6-2.1-7.8-4.5-9.3-5.4-1.5-.9-4.6-2.7-6.9-4-2.3-1.3-5.1-3-6.2-3.7-1.1-.7-2.2-1.6-2.5-2.1-.5-.8-.5-3.5-.6-32.7C0,80,0,60.7.1,54.5l.2-11.2.8-.7c.4-.4,6.8-4.2,14.1-8.5,7.4-4.3,16.4-9.5,20-11.6,3.6-2.1,7.7-4.4,9-5.1,1.3-.7,3.9-2.2,5.7-3.4,1.8-1.1,3.5-2.1,3.8-2.1s.7.2.8.4c.3.3.3,3.1.3,10.8,0,9.3-.1,10.4-.6,11.2-.3.5-1.4,1.4-2.6,2.1-1.1.7-3.9,2.3-6.2,3.6-2.3,1.3-5.5,3.1-7.1,4-1.6.9-4,2.4-5.4,3.2-1.4.9-3.8,2.2-5.3,3-1.5.8-3.6,2-4.7,2.8-1.7,1.1-2,1.5-2.2,2.3,0,.5-.2,14.9-.3,32l-.2,31,1,1c.5.5,1.1,1,1.2,1s4.7,2.6,10.1,5.7c5.4,3.1,12.8,7.4,16.3,9.4s7.8,4.5,9.3,5.3c1.6.9,3.1,1.8,3.3,2,.2.2.7.4,1,.5.3.1.8,0,1.1-.4.6-.6.6-1.1.6-15.8v-15.2l-.8-.7c-.4-.4-2.5-1.6-4.7-2.8-2.2-1.1-5.2-2.8-6.7-3.7-1.5-.9-4.3-2.5-6.2-3.6-1.9-1.1-3.9-2.2-4.4-2.6-.5-.3-1.1-.8-1.3-1.1-.3-.4-.4-3.2-.4-11.8s0-11.4.4-11.4c.2,0,.5,0,.7,0,.2,0,1.5.7,2.9,1.5,1.4.8,4.1,2.4,6.1,3.6,2,1.2,4.4,2.6,5.4,3.2s4.7,2.7,8.3,4.7c3.6,2,8.2,4.7,10.2,6,2.1,1.2,5.2,3,6.9,3.9,2.6,1.4,3.2,1.9,3.6,2.7.4.9.5,4.1.6,26.2,0,13.8,0,29.2-.2,34.1-.2,7.1-.3,9.2-.7,9.7-.2.4-1.9,1.4-3.6,2.3-2.3,1.2-3.6,1.6-4.4,1.6-.8,0-2-.5-4.2-1.6h0ZM96.7,161.5c-.2-.4-.3-18.7-.3-63.8,0-62.1,0-63.2-.5-64-.3-.4-1-1-1.6-1.4-.6-.3-2.2-1.2-3.6-1.9s-2.9-1.5-3.3-1.8c-.4-.2-1-.4-1.3-.4-.3,0-.7.2-1,.5-.4.4-.5,3.2-.5,28.5,0,25.4,0,28-.5,28.3-.3.2-1.1,0-2.8-1-1.3-.7-5-2.8-8.2-4.7-3.2-1.9-6.4-3.8-7.1-4.2-.8-.6-1.3-1.3-1.6-2-.3-.9-.4-8-.3-33.8,0-26.2.2-32.8.5-33.4.2-.4,1.4-1.3,2.6-2.1,1.2-.8,3.5-2,5.1-2.8C74.1.7,75.7,0,76,0s2.2.8,4.1,1.8c1.9,1,4.1,2.1,4.7,2.5.7.4,3.6,2.1,6.5,3.8,2.9,1.7,5.4,3.1,5.5,3.1s1.9,1,4,2.3c2.1,1.3,4.5,2.6,5.2,3,.7.4,6,3.4,11.6,6.6,5.6,3.2,12.7,7.3,15.6,9,3,1.7,7.5,4.4,10.1,5.8s5.3,3,6.1,3.5c.8.5,1.7,1.3,2.1,1.9.7,1,.7,1.3.9,14.3.1,7.3.2,25.5.2,40.6,0,15.1-.1,28.4-.2,29.8-.2,2.2-.3,2.5-1.2,3.2-.5.4-3.1,2-5.7,3.4-2.6,1.5-6.3,3.6-8.2,4.7-1.9,1.1-3.8,2.1-4.1,2.1s-.8-.2-.9-.5c-.1-.3-.2-19.7-.2-43.1v-42.6s-.8-.8-.8-.8c-.4-.4-1.3-1.2-2-1.6-.7-.5-2.8-1.7-4.8-2.7-2-1-4-2.1-4.5-2.4-.5-.3-1.3-.5-1.7-.6-.4,0-.9.2-1.1.4-.1.2-.2,21.4-.1,47.1,0,25.7,0,48.9-.1,51.5-.2,3.7-.3,4.9-.7,5.3-.3.3-2,1.4-3.8,2.5-1.8,1.1-5.2,3-7.5,4.3-2.3,1.3-4.8,2.7-5.5,3.2-.7.5-1.5.9-1.9.9s-.8-.3-.9-.6h0Z" sodipodi:nodetypes="sssssscssccccsssssscccsssssscccssssscccscssssssscssssscsscccscsscssssssscccsssccsssssssssssssssccsssscccssssssscssssscc"/>
  </g>
</svg>