<?xml version="1.0" encoding="UTF-8" standalone="no"?>
<!-- Created with Inkscape (http://www.inkscape.org/) -->
<svg
   width="53.835133mm"
   height="61.320618mm"
   viewBox="0 0 53.835131 61.320617"
   version="1.1"
   id="svg1"
   xml:space="preserve"
   inkscape:version="1.4.2 (f4327f4, 2025-05-13)"
   sodipodi:docname="logo_branco.svg"
   xmlns:inkscape="http://www.inkscape.org/namespaces/inkscape"
   xmlns:sodipodi="http://sodipodi.sourceforge.net/DTD/sodipodi-0.dtd"
   xmlns="http://www.w3.org/2000/svg"
   xmlns:svg="http://www.w3.org/2000/svg"><sodipodi:namedview
     id="namedview1"
     pagecolor="#ffffff"
     bordercolor="#000000"
     borderopacity="0.25"
     inkscape:showpageshadow="2"
     inkscape:pageopacity="0.0"
     inkscape:pagecheckerboard="0"
     inkscape:deskcolor="#d1d1d1"
     inkscape:document-units="mm"
     inkscape:zoom="1.9477379"
     inkscape:cx="168.65719"
     inkscape:cy="141.44613"
     inkscape:window-width="1920"
     inkscape:window-height="991"
     inkscape:window-x="-9"
     inkscape:window-y="-9"
     inkscape:window-maximized="1"
     inkscape:current-layer="layer1"
     labelstyle="default" /><defs
     id="defs1" /><g
     inkscape:label="Camada 1"
     inkscape:groupmode="layer"
     id="layer1"
     transform="translate(-28.636263,-0.93400653)"><path
       style="fill:#0d216f;fill-opacity:1"
       d="m 54.0006,61.687189 c -0.58351,-0.31115 -2.56481,-1.43792 -4.40288,-2.50394 -1.83808,-1.06601 -3.77163,-2.18831 -4.2968,-2.49398 -0.52516,-0.30567 -1.6471,-0.96152 -2.4932,-1.45745 -0.846101,-0.49592 -1.824811,-1.07149 -2.174921,-1.27904 -0.35011,-0.20755 -1.68689,-0.9798 -2.97062,-1.7161 -1.28373,-0.73631 -2.76374,-1.59101 -3.2889,-1.89935 -0.52517,-0.30833 -1.62323,-0.94864 -2.44016,-1.42291 -0.81692,-0.47426 -1.79914,-1.05925 -2.18272,-1.29998 -0.38358,-0.24072 -0.77788,-0.57389 -0.87623,-0.74037 -0.16384,-0.27737 -0.18265,-1.24244 -0.22478,-11.53065 -0.0253,-6.17537 -0.0129,-13.00533 0.0275,-15.177683 l 0.0735,-3.949735 0.26523,-0.256432 c 0.14588,-0.141037 2.38976,-1.485484 4.98641,-2.987659 2.59664,-1.502176 5.77148,-3.3379691 7.05522,-4.0795441 1.28373,-0.741575 2.715991,-1.554109 3.182811,-1.80563 0.46681,-0.251522 1.37364,-0.7839383 2.01517,-1.1831483 0.64153,-0.399209 1.2444,-0.725835 1.3397,-0.725835 0.0953,0 0.22974,0.06803 0.29875,0.151178 0.0926,0.111629 0.11686,1.105142 0.0926,3.7977513 -0.0298,3.2970421 -0.0512,3.6744411 -0.22357,3.9373281 -0.10487,0.159917 -0.51067,0.495699 -0.90179,0.746184 -0.39112,0.250484 -1.37952,0.82784 -2.19644,1.283013 -0.81692,0.455172 -1.93886,1.092752 -2.493201,1.416842 -0.55434,0.324091 -1.41371,0.835475 -1.90969,1.136408 -0.49598,0.300933 -1.33147,0.777417 -1.85664,1.058854 -0.52516,0.281436 -1.27499,0.718971 -1.66628,0.972299 -0.59072,0.38244 -0.72038,0.518997 -0.76412,0.804776 -0.029,0.189299 -0.0822,5.264593 -0.11827,11.278443 l -0.0656,10.93426 0.34591,0.33819 c 0.19025,0.18601 0.38015,0.33819 0.422,0.33819 0.0418,0 1.64407,0.9012 3.56051,2.00267 1.91644,1.10146 4.510891,2.59798 5.765451,3.32558 1.25456,0.7276 2.73456,1.57633 3.2889,1.88606 0.55434,0.30974 1.0795,0.62017 1.16703,0.68986 0.0875,0.0697 0.24377,0.15674 0.34721,0.19347 0.11618,0.0412 0.26826,-0.0134 0.39785,-0.14302 0.20344,-0.20343 0.20979,-0.37171 0.20979,-5.56322 v -5.35343 l -0.26827,-0.24875 c -0.14755,-0.13682 -0.89949,-0.57709 -1.67098,-0.97838 -0.77149,-0.40129 -1.83238,-0.99022 -2.35755,-1.30873 -0.52516,-0.31851 -1.50388,-0.88875 -2.17492,-1.2672 -0.67104,-0.37845 -1.3633,-0.78499 -1.53836,-0.90342 -0.17505,-0.11842 -0.37796,-0.28866 -0.4509,-0.37829 -0.10088,-0.12397 -0.13261,-1.12287 -0.13261,-4.17425 0,-3.13159 0.0291,-4.01404 0.13261,-4.02385 0.0729,-0.007 0.18695,-0.006 0.25335,0.002 0.0664,0.008 0.51996,0.24451 1.00789,0.52563 0.48794,0.28113 1.46007,0.84648 2.16029,1.25634 0.70021,0.40986 1.55957,0.91201 1.90968,1.1159 0.35011,0.20389 1.66302,0.95793 2.91758,1.67563 1.25456,0.71771 2.87779,1.66308 3.60718,2.10082 0.7294,0.43773 1.82243,1.06297 2.42896,1.38942 0.90917,0.48934 1.13205,0.65874 1.2695,0.96487 0.14631,0.32589 0.171,1.45552 0.20177,9.23015 0.0193,4.87235 -0.005,10.29109 -0.0539,12.04163 -0.0696,2.48864 -0.12272,3.23569 -0.24362,3.42526 -0.0851,0.13335 -0.66403,0.50335 -1.28662,0.82223 -0.79559,0.40748 -1.25275,0.5793 -1.53836,0.57817 -0.28555,-10e-4 -0.7218,-0.16981 -1.46731,-0.56735 z m 8.750779,-3.78453 c -0.0824,-0.15396 -0.1104,-6.60503 -0.0977,-22.50334 0.0175,-21.904671 0.0143,-22.29225 -0.18794,-22.563116 -0.113169,-0.15158 -0.369279,-0.367114 -0.569129,-0.478964 -0.19985,-0.11185 -0.76917,-0.419467 -1.26516,-0.683593 -0.49599,-0.264126 -1.02115,-0.544422 -1.16703,-0.622879 -0.14588,-0.07846 -0.34538,-0.142945 -0.44332,-0.143305 -0.0979,-3.59e-4 -0.25471,0.07597 -0.34837,0.169626 -0.15403,0.154031 -0.16923,1.112489 -0.15931,10.044011 0.01,8.96458 -0.005,9.88251 -0.15947,9.96912 -0.12257,0.0686 -0.40031,-0.0307 -0.98878,-0.35342 -0.45008,-0.24685 -1.7493,-0.98627 -2.88715,-1.64317 -1.13786,-0.6569 -2.2598,-1.33144 -2.49321,-1.49897 -0.27747,-0.19916 -0.47106,-0.44619 -0.55926,-0.71364 -0.10652,-0.32302 -0.12884,-2.8325 -0.1061,-11.931432 0.0231,-9.2583034 0.0561,-11.5702084 0.16767,-11.7657904 0.0764,-0.133877 0.482,-0.46336 0.9014,-0.732185 0.41939,-0.268826 1.2359,-0.720261 1.81446,-1.00319 0.57856,-0.282928 1.1439,-0.51441507 1.25632,-0.51441507 0.11241,0 0.76412,0.28018307 1.44823,0.62263007 0.68411,0.342446 1.43186,0.740904 1.66165,0.885463 0.2298,0.144558 1.26367,0.747604 2.2975,1.340103 1.03383,0.592497 1.901849,1.077269 1.928939,1.077269 0.0271,0 0.66124,0.362738 1.40922,0.806085 0.74798,0.443347 1.5748,0.926282 1.83739,1.0731903 0.26258,0.146907 2.10065,1.199808 4.0846,2.33978 1.98395,1.1399701 4.46654,2.5756221 5.51687,3.1903361 1.05033,0.614714 2.64969,1.535652 3.55414,2.046528 0.90445,0.510876 1.87259,1.062945 2.15143,1.226819 0.27883,0.163875 0.61291,0.465052 0.74238,0.669282 0.23093,0.364258 0.23675,0.46021 0.30557,5.039449 0.0386,2.567468 0.0719,9.012658 0.0741,14.322648 0.002,5.30999 -0.0359,10.03531 -0.0847,10.50071 -0.0801,0.76485 -0.11992,0.87194 -0.41408,1.11399 -0.179,0.14728 -1.07945,0.69229 -2.001,1.21113 -0.92156,0.51883 -2.22502,1.27077 -2.89659,1.67097 -0.67156,0.4002 -1.32951,0.72764 -1.46211,0.72764 -0.1326,0 -0.27062,-0.077 -0.30672,-0.17102 -0.0361,-0.0941 -0.0704,-6.94118 -0.0762,-15.21583 l -0.0106,-15.044802 -0.26524,-0.285121 c -0.14588,-0.156816 -0.4562,-0.417208 -0.68961,-0.578649 -0.2334,-0.161441 -0.99728,-0.594142 -1.69749,-0.961558 -0.70022,-0.367417 -1.41635,-0.755242 -1.59141,-0.861835 -0.17505,-0.106592 -0.44675,-0.193983 -0.60378,-0.194201 -0.15702,-2.18e-4 -0.32412,0.05928 -0.37132,0.13222 -0.0472,0.07294 -0.0686,7.556526 -0.0476,16.630186 0.021,9.07366 0.003,17.24958 -0.0408,18.16872 -0.0618,1.30874 -0.11616,1.71239 -0.25041,1.86131 -0.0943,0.10459 -0.69659,0.5032 -1.33846,0.88581 -0.64187,0.3826 -1.83542,1.06801 -2.65234,1.52312 -0.81692,0.45511 -1.68488,0.96351 -1.9288,1.12979 -0.24392,0.16628 -0.54063,0.30232 -0.65936,0.30232 -0.11872,0 -0.26784,-0.0971 -0.33137,-0.21583 z"
       id="path13"
       sodipodi:nodetypes="sssssscssccccsssssscccsssssscccssssscccscssssssscssssscsscccscsscssssssscccsssccsssssssssssssssccsssscccssssssscssssscc" /></g></svg>